<svg xmlns="http://www.w3.org/2000/svg" width="1200" height="900" viewBox="0 0 1200 900">
  <defs>
    <linearGradient id="bg" x1="0" y1="0" x2="1" y2="1">
      <stop offset="0%" stop-color="#1e5f52"/>
      <stop offset="100%" stop-color="#0b2b27"/>
    </linearGradient>
    <filter id="shadow" x="-20%" y="-20%" width="140%" height="140%">
      <feDropShadow dx="0" dy="14" stdDeviation="20" flood-color="#000" flood-opacity=".25"/>
    </filter>
  </defs>
  <rect width="1200" height="900" fill="url(#bg)"/>
  <circle cx="180" cy="170" r="170" fill="#93d76f" opacity=".12"/>
  <circle cx="1020" cy="180" r="210" fill="#fff" opacity=".07"/>
  <circle cx="970" cy="720" r="160" fill="#93d76f" opacity=".15"/>
  <g filter="url(#shadow)">
    <ellipse cx="600" cy="630" rx="320" ry="115" fill="#102317" opacity=".6"/>
    <ellipse cx="600" cy="560" rx="300" ry="220" fill="#f7f2e8"/>
    <ellipse cx="600" cy="550" rx="250" ry="170" fill="#fffef8"/>
  </g>
  
        <rect x="486" y="250" width="240" height="360" rx="28" fill="#d5fff8"/>
        <rect x="510" y="290" width="192" height="284" rx="20" fill="#77e1d2"/>
        <rect x="560" y="190" width="92" height="96" rx="18" fill="#ffffff"/>
        <rect x="545" y="210" width="120" height="18" rx="9" fill="#e3c15d"/>
        <circle cx="560" cy="375" r="28" fill="#fff" opacity=".6"/>
        <circle cx="642" cy="446" r="38" fill="#fff" opacity=".36"/>
        
  <text x="600" y="100" font-family="Arial, sans-serif" font-size="62" text-anchor="middle" fill="#fff" font-weight="700">Cool Drinks</text>
</svg>