<svg xmlns="http://www.w3.org/2000/svg" width="1200" height="900" viewBox="0 0 1200 900">
  <defs>
    <linearGradient id="bg" x1="0" y1="0" x2="1" y2="1">
      <stop offset="0%" stop-color="#7e2d5f"/>
      <stop offset="100%" stop-color="#2d1730"/>
    </linearGradient>
    <filter id="shadow" x="-20%" y="-20%" width="140%" height="140%">
      <feDropShadow dx="0" dy="14" stdDeviation="20" flood-color="#000" flood-opacity=".25"/>
    </filter>
  </defs>
  <rect width="1200" height="900" fill="url(#bg)"/>
  <circle cx="180" cy="170" r="170" fill="#f0c96d" opacity=".12"/>
  <circle cx="1020" cy="180" r="210" fill="#fff" opacity=".07"/>
  <circle cx="970" cy="720" r="160" fill="#f0c96d" opacity=".15"/>
  <g filter="url(#shadow)">
    <ellipse cx="600" cy="630" rx="320" ry="115" fill="#102317" opacity=".6"/>
    <ellipse cx="600" cy="560" rx="300" ry="220" fill="#f7f2e8"/>
    <ellipse cx="600" cy="550" rx="250" ry="170" fill="#fffef8"/>
  </g>
  
        <ellipse cx="600" cy="600" rx="260" ry="90" fill="#fff0e8"/>
        <rect x="470" y="370" width="260" height="240" rx="40" fill="#f8e2ce"/>
        <rect x="500" y="340" width="200" height="70" rx="35" fill="#d57d78"/>
        <circle cx="540" cy="500" r="28" fill="#fff"/>
        <circle cx="600" cy="505" r="28" fill="#fff"/>
        <circle cx="660" cy="500" r="28" fill="#fff"/>
        <path d="M500 365 C540 310, 660 310, 700 365" stroke="#f0c96d" stroke-width="18" fill="none"/>
        
  <text x="600" y="100" font-family="Arial, sans-serif" font-size="62" text-anchor="middle" fill="#fff" font-weight="700">Desserts</text>
</svg>