<svg xmlns="http://www.w3.org/2000/svg" width="1200" height="900" viewBox="0 0 1200 900">
  <defs>
    <linearGradient id="bg" x1="0" y1="0" x2="1" y2="1">
      <stop offset="0%" stop-color="#3a6b3c"/>
      <stop offset="100%" stop-color="#10331f"/>
    </linearGradient>
    <filter id="shadow" x="-20%" y="-20%" width="140%" height="140%">
      <feDropShadow dx="0" dy="14" stdDeviation="20" flood-color="#000" flood-opacity=".25"/>
    </filter>
  </defs>
  <rect width="1200" height="900" fill="url(#bg)"/>
  <circle cx="180" cy="170" r="170" fill="#e3c15d" opacity=".12"/>
  <circle cx="1020" cy="180" r="210" fill="#fff" opacity=".07"/>
  <circle cx="970" cy="720" r="160" fill="#e3c15d" opacity=".15"/>
  <g filter="url(#shadow)">
    <ellipse cx="600" cy="630" rx="320" ry="115" fill="#102317" opacity=".6"/>
    <ellipse cx="600" cy="560" rx="300" ry="220" fill="#f7f2e8"/>
    <ellipse cx="600" cy="550" rx="250" ry="170" fill="#fffef8"/>
  </g>
  
        <rect x="340" y="355" width="520" height="180" rx="40" fill="#c89d5b"/>
        <rect x="370" y="320" width="460" height="240" rx="42" fill="#f2e8d8"/>
        <circle cx="550" cy="430" r="82" fill="#fff"/>
        <circle cx="550" cy="430" r="55" fill="#f1d98b"/>
        <circle cx="735" cy="390" r="42" fill="#9ad87b"/>
        <circle cx="790" cy="455" r="54" fill="#d96f4d"/>
        <rect x="710" y="425" width="110" height="30" rx="15" fill="#7a4c28"/>
        <rect x="700" y="470" width="120" height="24" rx="12" fill="#2e7d43"/>
        
  <text x="600" y="100" font-family="Arial, sans-serif" font-size="62" text-anchor="middle" fill="#fff" font-weight="700">Rice Meal</text>
</svg>