<svg xmlns="http://www.w3.org/2000/svg" width="1200" height="900" viewBox="0 0 1200 900">
  <defs>
    <linearGradient id="bg" x1="0" y1="0" x2="1" y2="1">
      <stop offset="0%" stop-color="#f4d06f"/>
      <stop offset="100%" stop-color="#dcbf4f"/>
    </linearGradient>
    <filter id="shadow" x="-20%" y="-20%" width="140%" height="140%">
      <feDropShadow dx="0" dy="14" stdDeviation="20" flood-color="#000" flood-opacity=".25"/>
    </filter>
  </defs>
  <rect width="1200" height="900" fill="url(#bg)"/>
  <circle cx="180" cy="170" r="170" fill="#8dc63f" opacity=".12"/>
  <circle cx="1020" cy="180" r="210" fill="#fff" opacity=".07"/>
  <circle cx="970" cy="720" r="160" fill="#8dc63f" opacity=".15"/>
  <g filter="url(#shadow)">
    <ellipse cx="600" cy="630" rx="320" ry="115" fill="#102317" opacity=".6"/>
    <ellipse cx="600" cy="560" rx="300" ry="220" fill="#f7f2e8"/>
    <ellipse cx="600" cy="550" rx="250" ry="170" fill="#fffef8"/>
  </g>
  
        <rect x="420" y="300" width="120" height="90" rx="45" fill="#d18a5a"/>
        <rect x="470" y="280" width="260" height="200" rx="30" fill="#e8a96b"/>
        <circle cx="575" cy="365" r="35" fill="#fff3d6"/>
        <circle cx="575" cy="365" r="18" fill="#f4d06f"/>
        <rect x="735" y="290" width="110" height="220" rx="24" fill="#2e7d43"/>
        <rect x="747" y="305" width="86" height="190" rx="18" fill="#f4efe4"/>
        <rect x="768" y="330" width="44" height="120" rx="12" fill="#71c77a"/>
        <path d="M760 505 C780 455, 820 455, 840 505" stroke="#f0cc73" stroke-width="12" fill="none"/>
        <ellipse cx="505" cy="535" rx="70" ry="28" fill="#b66a40"/>
        <ellipse cx="505" cy="520" rx="42" ry="18" fill="#fff0bf"/>
        
  <text x="600" y="100" font-family="Arial, sans-serif" font-size="62" text-anchor="middle" fill="#fff" font-weight="700">Breakfast Set</text>
</svg>